<mxfile host="app.diagrams.net" modified="2023-05-22T06:24:42.075Z" agent="Mozilla/5.0 (Macintosh; Intel Mac OS X 10_15_7) AppleWebKit/537.36 (KHTML, like Gecko) Chrome/113.0.0.0 Safari/537.36" etag="MGzcZSHoHcZfP7F-7joi" version="21.2.9" type="github">
  <diagram id="MtITpHz6bMURJ07ILpVo" name="第 1 页">
    <mxGraphModel dx="1005" dy="647" grid="0" gridSize="10" guides="1" tooltips="1" connect="1" arrows="1" fold="1" page="1" pageScale="1" pageWidth="827" pageHeight="1169" math="0" shadow="0">
      <root>
        <mxCell id="0" />
        <mxCell id="1" parent="0" />
        <mxCell id="tvpSU6sHkQA7kPhEmo6M-15" value="" style="rounded=1;whiteSpace=wrap;html=1;" parent="1" vertex="1">
          <mxGeometry x="260" y="54" width="470" height="260" as="geometry" />
        </mxCell>
        <mxCell id="tvpSU6sHkQA7kPhEmo6M-3" style="edgeStyle=orthogonalEdgeStyle;rounded=0;orthogonalLoop=1;jettySize=auto;html=1;entryX=0;entryY=0.5;entryDx=0;entryDy=0;" parent="1" source="tvpSU6sHkQA7kPhEmo6M-1" target="tvpSU6sHkQA7kPhEmo6M-2" edge="1">
          <mxGeometry relative="1" as="geometry" />
        </mxCell>
        <mxCell id="tvpSU6sHkQA7kPhEmo6M-4" value="作用于" style="edgeLabel;html=1;align=center;verticalAlign=middle;resizable=0;points=[];" parent="tvpSU6sHkQA7kPhEmo6M-3" vertex="1" connectable="0">
          <mxGeometry x="-0.25" y="1" relative="1" as="geometry">
            <mxPoint as="offset" />
          </mxGeometry>
        </mxCell>
        <mxCell id="tvpSU6sHkQA7kPhEmo6M-1" value="θ_i" style="rounded=0;whiteSpace=wrap;html=1;" parent="1" vertex="1">
          <mxGeometry x="415" y="240" width="60" height="60" as="geometry" />
        </mxCell>
        <mxCell id="tvpSU6sHkQA7kPhEmo6M-8" style="edgeStyle=orthogonalEdgeStyle;rounded=0;orthogonalLoop=1;jettySize=auto;html=1;exitX=0.5;exitY=0;exitDx=0;exitDy=0;entryX=1;entryY=0.5;entryDx=0;entryDy=0;" parent="1" source="tvpSU6sHkQA7kPhEmo6M-2" target="tvpSU6sHkQA7kPhEmo6M-7" edge="1">
          <mxGeometry relative="1" as="geometry" />
        </mxCell>
        <mxCell id="tvpSU6sHkQA7kPhEmo6M-9" value="反馈" style="edgeLabel;html=1;align=center;verticalAlign=middle;resizable=0;points=[];" parent="tvpSU6sHkQA7kPhEmo6M-8" vertex="1" connectable="0">
          <mxGeometry x="0.0933" y="-1" relative="1" as="geometry">
            <mxPoint x="-1" y="25" as="offset" />
          </mxGeometry>
        </mxCell>
        <mxCell id="tvpSU6sHkQA7kPhEmo6M-25" style="edgeStyle=orthogonalEdgeStyle;rounded=0;orthogonalLoop=1;jettySize=auto;html=1;exitX=0.5;exitY=1;exitDx=0;exitDy=0;entryX=0.5;entryY=0;entryDx=0;entryDy=0;" parent="1" source="tvpSU6sHkQA7kPhEmo6M-2" target="tvpSU6sHkQA7kPhEmo6M-24" edge="1">
          <mxGeometry relative="1" as="geometry" />
        </mxCell>
        <mxCell id="tvpSU6sHkQA7kPhEmo6M-10" style="edgeStyle=orthogonalEdgeStyle;rounded=0;orthogonalLoop=1;jettySize=auto;html=1;exitX=0;exitY=0.5;exitDx=0;exitDy=0;entryX=0;entryY=0.5;entryDx=0;entryDy=0;" parent="1" source="tvpSU6sHkQA7kPhEmo6M-7" target="tvpSU6sHkQA7kPhEmo6M-33" edge="1">
          <mxGeometry relative="1" as="geometry" />
        </mxCell>
        <mxCell id="tvpSU6sHkQA7kPhEmo6M-11" value="CMA方法&lt;br&gt;更新" style="edgeLabel;html=1;align=center;verticalAlign=middle;resizable=0;points=[];" parent="tvpSU6sHkQA7kPhEmo6M-10" vertex="1" connectable="0">
          <mxGeometry x="0.2897" y="1" relative="1" as="geometry">
            <mxPoint x="-1" y="-29" as="offset" />
          </mxGeometry>
        </mxCell>
        <mxCell id="tvpSU6sHkQA7kPhEmo6M-7" value="累计策略奖励&lt;br&gt;Fi" style="rounded=0;whiteSpace=wrap;html=1;" parent="1" vertex="1">
          <mxGeometry x="440" y="80" width="120" height="60" as="geometry" />
        </mxCell>
        <mxCell id="tvpSU6sHkQA7kPhEmo6M-12" value="θ_j" style="rounded=0;whiteSpace=wrap;html=1;" parent="1" vertex="1">
          <mxGeometry x="415" y="321" width="60" height="60" as="geometry" />
        </mxCell>
        <mxCell id="tvpSU6sHkQA7kPhEmo6M-13" value="θ_k" style="rounded=0;whiteSpace=wrap;html=1;" parent="1" vertex="1">
          <mxGeometry x="415" y="430" width="60" height="60" as="geometry" />
        </mxCell>
        <mxCell id="tvpSU6sHkQA7kPhEmo6M-14" value="&lt;span style=&quot;font-size: 16px;&quot;&gt;......&lt;/span&gt;" style="text;html=1;strokeColor=none;fillColor=none;align=center;verticalAlign=middle;whiteSpace=wrap;rounded=0;fontSize=16;" parent="1" vertex="1">
          <mxGeometry x="414" y="387" width="60" height="30" as="geometry" />
        </mxCell>
        <mxCell id="tvpSU6sHkQA7kPhEmo6M-16" value="策略i" style="text;html=1;strokeColor=none;fillColor=none;align=center;verticalAlign=middle;whiteSpace=wrap;rounded=0;" parent="1" vertex="1">
          <mxGeometry x="610" y="70" width="110" height="30" as="geometry" />
        </mxCell>
        <mxCell id="tvpSU6sHkQA7kPhEmo6M-20" style="rounded=0;orthogonalLoop=1;jettySize=auto;html=1;exitX=0.5;exitY=0;exitDx=0;exitDy=0;entryX=0;entryY=0.5;entryDx=0;entryDy=0;" parent="1" source="tvpSU6sHkQA7kPhEmo6M-33" target="tvpSU6sHkQA7kPhEmo6M-1" edge="1">
          <mxGeometry relative="1" as="geometry" />
        </mxCell>
        <mxCell id="tvpSU6sHkQA7kPhEmo6M-21" style="edgeStyle=none;rounded=0;orthogonalLoop=1;jettySize=auto;html=1;exitX=0.5;exitY=0;exitDx=0;exitDy=0;entryX=0;entryY=0.5;entryDx=0;entryDy=0;" parent="1" source="tvpSU6sHkQA7kPhEmo6M-33" target="tvpSU6sHkQA7kPhEmo6M-12" edge="1">
          <mxGeometry relative="1" as="geometry" />
        </mxCell>
        <mxCell id="tvpSU6sHkQA7kPhEmo6M-22" style="edgeStyle=none;rounded=0;orthogonalLoop=1;jettySize=auto;html=1;exitX=0.5;exitY=0;exitDx=0;exitDy=0;entryX=0;entryY=0.5;entryDx=0;entryDy=0;" parent="1" source="tvpSU6sHkQA7kPhEmo6M-33" target="tvpSU6sHkQA7kPhEmo6M-13" edge="1">
          <mxGeometry relative="1" as="geometry" />
        </mxCell>
        <mxCell id="tvpSU6sHkQA7kPhEmo6M-35" style="edgeStyle=orthogonalEdgeStyle;rounded=0;orthogonalLoop=1;jettySize=auto;html=1;exitX=1;exitY=0.5;exitDx=0;exitDy=0;startArrow=none;" parent="1" source="tvpSU6sHkQA7kPhEmo6M-37" target="tvpSU6sHkQA7kPhEmo6M-33" edge="1">
          <mxGeometry relative="1" as="geometry" />
        </mxCell>
        <mxCell id="tvpSU6sHkQA7kPhEmo6M-19" value="离线模型底层权重" style="rounded=0;whiteSpace=wrap;html=1;" parent="1" vertex="1">
          <mxGeometry x="80" y="245.23" width="120" height="250" as="geometry" />
        </mxCell>
        <mxCell id="tvpSU6sHkQA7kPhEmo6M-26" style="edgeStyle=orthogonalEdgeStyle;rounded=0;orthogonalLoop=1;jettySize=auto;html=1;exitX=0.5;exitY=1;exitDx=0;exitDy=0;entryX=0.5;entryY=1;entryDx=0;entryDy=0;" parent="1" source="tvpSU6sHkQA7kPhEmo6M-24" target="tvpSU6sHkQA7kPhEmo6M-19" edge="1">
          <mxGeometry relative="1" as="geometry">
            <Array as="points">
              <mxPoint x="604" y="530" />
              <mxPoint x="140" y="530" />
            </Array>
          </mxGeometry>
        </mxCell>
        <mxCell id="tvpSU6sHkQA7kPhEmo6M-24" value="用户特征 &amp;amp;&lt;br&gt;上下文特征" style="rounded=0;whiteSpace=wrap;html=1;" parent="1" vertex="1">
          <mxGeometry x="544" y="430" width="120" height="60" as="geometry" />
        </mxCell>
        <mxCell id="tvpSU6sHkQA7kPhEmo6M-28" value="" style="group" parent="1" vertex="1" connectable="0">
          <mxGeometry x="544" y="210" width="156" height="90" as="geometry" />
        </mxCell>
        <mxCell id="tvpSU6sHkQA7kPhEmo6M-27" value="User_i" style="rounded=0;whiteSpace=wrap;html=1;" parent="tvpSU6sHkQA7kPhEmo6M-28" vertex="1">
          <mxGeometry x="36" width="120" height="60" as="geometry" />
        </mxCell>
        <mxCell id="tvpSU6sHkQA7kPhEmo6M-18" value="User_i" style="rounded=0;whiteSpace=wrap;html=1;" parent="tvpSU6sHkQA7kPhEmo6M-28" vertex="1">
          <mxGeometry x="26" y="10" width="120" height="60" as="geometry" />
        </mxCell>
        <mxCell id="tvpSU6sHkQA7kPhEmo6M-17" value="User_i" style="rounded=0;whiteSpace=wrap;html=1;" parent="tvpSU6sHkQA7kPhEmo6M-28" vertex="1">
          <mxGeometry x="16" y="20" width="120" height="60" as="geometry" />
        </mxCell>
        <mxCell id="tvpSU6sHkQA7kPhEmo6M-2" value="用户" style="rounded=0;whiteSpace=wrap;html=1;" parent="tvpSU6sHkQA7kPhEmo6M-28" vertex="1">
          <mxGeometry y="30" width="120" height="60" as="geometry" />
        </mxCell>
        <mxCell id="tvpSU6sHkQA7kPhEmo6M-33" value="顶层权重&lt;br&gt;θ_t" style="rounded=0;whiteSpace=wrap;html=1;direction=south;" parent="1" vertex="1">
          <mxGeometry x="270" y="340.23" width="60" height="60" as="geometry" />
        </mxCell>
        <mxCell id="tvpSU6sHkQA7kPhEmo6M-38" value="" style="edgeStyle=orthogonalEdgeStyle;rounded=0;orthogonalLoop=1;jettySize=auto;html=1;exitX=1;exitY=0.5;exitDx=0;exitDy=0;endArrow=none;" parent="1" source="tvpSU6sHkQA7kPhEmo6M-19" target="tvpSU6sHkQA7kPhEmo6M-37" edge="1">
          <mxGeometry relative="1" as="geometry">
            <mxPoint x="160" y="370.23" as="sourcePoint" />
            <mxPoint x="230" y="370.23" as="targetPoint" />
          </mxGeometry>
        </mxCell>
        <mxCell id="tvpSU6sHkQA7kPhEmo6M-37" value="&lt;font style=&quot;font-size: 12px;&quot;&gt;嵌入式向量&lt;/font&gt;" style="rounded=0;whiteSpace=wrap;html=1;fontSize=12;horizontal=0;" parent="1" vertex="1">
          <mxGeometry x="220" y="265.23" width="20" height="210" as="geometry" />
        </mxCell>
        <mxCell id="tvpSU6sHkQA7kPhEmo6M-40" style="edgeStyle=orthogonalEdgeStyle;rounded=0;orthogonalLoop=1;jettySize=auto;html=1;entryX=0;entryY=0.5;entryDx=0;entryDy=0;dashed=1;fontSize=12;" parent="1" source="tvpSU6sHkQA7kPhEmo6M-19" target="tvpSU6sHkQA7kPhEmo6M-19" edge="1">
          <mxGeometry relative="1" as="geometry">
            <Array as="points">
              <mxPoint x="140" y="225" />
              <mxPoint x="40" y="225" />
              <mxPoint x="40" y="370" />
            </Array>
          </mxGeometry>
        </mxCell>
        <mxCell id="tvpSU6sHkQA7kPhEmo6M-41" value="日常更新" style="edgeLabel;html=1;align=center;verticalAlign=middle;resizable=0;points=[];fontSize=12;" parent="tvpSU6sHkQA7kPhEmo6M-40" vertex="1" connectable="0">
          <mxGeometry x="-0.4615" relative="1" as="geometry">
            <mxPoint as="offset" />
          </mxGeometry>
        </mxCell>
        <mxCell id="1cgV8ryZn3Tcq5ndYSye-1" value="" style="shape=image;verticalLabelPosition=bottom;labelBackgroundColor=default;verticalAlign=top;aspect=fixed;imageAspect=0;image=data:image/png,iVBORw0KGgoAAAANSUhEUgAAAloAAABsCAYAAACy5xxzAAAMP2lDQ1BJQ0MgUHJvZmlsZQAASImVVwdYU8kWnluSkEBoAQSkhN4EkRpASggt9I4gKiEJEEqMgaBiRxcVXLuIgA1dFVGwAmJBETuLYu+LBRVlXSzYlTcpoOu+8r3zfXPvf/85858z584tA4DacY5IlIuqA5AnLBDHBvvTxyWn0ElPAQIwQAY0YMPh5ouY0dHhANrQ+e/27jr0hnbFXqr1z/7/aho8fj4XACQa4nRePjcP4gMA4NVckbgAAKKUN5taIJJi2ICWGCYI8SIpzpTjailOl+M9Mp/4WBbE7QAoqXA44kwAVC9Bnl7IzYQaqv0QOwp5AiEAanSIffLyJvMgToPYGvqIIJbqM9J/0Mn8m2b6sCaHkzmM5XORmVKAIF+Uy5n+f5bjf1termQohiVsKlnikFjpnGHdbuZMDpNiFYj7hOmRURBrQvxBwJP5Q4xSsiQhCXJ/1ICbz4I1AzoQO/I4AWEQG0AcJMyNDFfw6RmCIDbEcIWg0wQF7HiIdSFexM8PjFP4bBJPjlXEQhszxCymgj/LEcviSmPdl+QkMBX6r7P4bIU+plqUFZ8EMQVi80JBYiTEqhA75OfEhSl8xhZlsSKHfMSSWGn+5hDH8oXB/nJ9rDBDHBSr8C/Nyx+aL7YpS8COVOB9BVnxIfL6YO1cjix/OBfsEl/ITBjS4eePCx+aC48fECifO/aML0yIU+h8EBX4x8rH4hRRbrTCHzfl5wZLeVOIXfIL4xRj8cQCuCDl+niGqCA6Xp4nXpTNCY2W54MvB+GABQIAHUhgSweTQTYQdPY19cEreU8Q4AAxyAR8YK9ghkYkyXqE8BgHisCfEPFB/vA4f1kvHxRC/uswKz/agwxZb6FsRA54AnEeCAO58FoiGyUcjpYIHkNG8I/oHNi4MN9c2KT9/54fYr8zTMiEKxjJUES62pAnMZAYQAwhBhFtcH3cB/fCw+HRDzYnnIF7DM3juz/hCaGL8JBwjdBNuDVJUCz+KcsI0A31gxS1SP+xFrgl1HTF/XFvqA6VcR1cH9jjLjAOE/eFkV0hy1LkLa0K/Sftv83gh7uh8CM7klHyCLIf2frnkaq2qq7DKtJa/1gfea7pw/VmDff8HJ/1Q/V58Bz2sye2CNuPncFOYOewI1gToGOtWDPWgR2V4uHV9Vi2uoaixcryyYE6gn/EG7qz0krmO9Y59jp+kfcV8KdJ39GANVk0XSzIzCqgM+EXgU9nC7kOo+hOjk7OAEi/L/LX15sY2XcD0en4zs3/AwDv1sHBwcPfudBWAPa6w8f/0HfOmgE/HcoAnD3ElYgL5RwuPRDgW0INPml6wAiYAWs4HyfgBryAHwgEoSAKxINkMBFmnwXXuRhMBTPBPFACysBysAZUgo1gC9gBdoN9oAkcASfAaXABXALXwB24enrAC9AP3oHPCIKQECpCQ/QQY8QCsUOcEAbigwQi4UgskoykIZmIEJEgM5H5SBmyEqlENiO1yF7kEHICOYd0IbeQB0gv8hr5hGKoCqqFGqKW6GiUgTLRMDQenYBmolPQInQBuhStQGvQXWgjegK9gF5Du9EX6AAGMGVMBzPB7DEGxsKisBQsAxNjs7FSrByrweqxFnifr2DdWB/2ESfiNJyO28MVHIIn4Fx8Cj4bX4JX4jvwRrwdv4I/wPvxbwQqwYBgR/AksAnjCJmEqYQSQjlhG+Eg4RR8lnoI74hEog7RiugOn8VkYjZxBnEJcT2xgXic2EV8RBwgkUh6JDuSNymKxCEVkEpI60i7SK2ky6Qe0gclZSVjJSelIKUUJaFSsVK50k6lY0qXlZ4qfSarky3InuQoMo88nbyMvJXcQr5I7iF/pmhQrCjelHhKNmUepYJSTzlFuUt5o6ysbKrsoRyjLFCeq1yhvEf5rPID5Y8qmiq2KiyVVBWJylKV7SrHVW6pvKFSqZZUP2oKtYC6lFpLPUm9T/2gSlN1UGWr8lTnqFapNqpeVn2pRlazUGOqTVQrUitX2692Ua1Pnaxuqc5S56jPVq9SP6R+Q31Ag6YxRiNKI09jicZOjXMazzRJmpaagZo8zQWaWzRPaj6iYTQzGovGpc2nbaWdovVoEbWstNha2VplWru1OrX6tTW1XbQTtadpV2kf1e7WwXQsddg6uTrLdPbpXNf5NMJwBHMEf8TiEfUjLo94rztS10+Xr1uq26B7TfeTHl0vUC9Hb4Vek949fVzfVj9Gf6r+Bv1T+n0jtUZ6jeSOLB25b+RtA9TA1iDWYIbBFoMOgwFDI8NgQ5HhOsOThn1GOkZ+RtlGq42OGfUa04x9jAXGq41bjZ/TtelMei69gt5O7zcxMAkxkZhsNuk0+WxqZZpgWmzaYHrPjGLGMMswW23WZtZvbmweYT7TvM78tgXZgmGRZbHW4ozFe0sryyTLhZZNls+sdK3YVkVWdVZ3ranWvtZTrGusr9oQbRg2OTbrbS7Zorautlm2VbYX7VA7NzuB3Xq7rlGEUR6jhKNqRt2wV7Fn2hfa19k/cNBxCHcodmhyeDnafHTK6BWjz4z+5ujqmOu41fHOGM0xoWOKx7SMee1k68R1qnK66kx1DnKe49zs/MrFzoXvssHlpivNNcJ1oWub61c3dzexW71br7u5e5p7tfsNhhYjmrGEcdaD4OHvMcfjiMdHTzfPAs99nn952XvleO30ejbWaix/7Naxj7xNvTnem727feg+aT6bfLp9TXw5vjW+D/3M/Hh+2/yeMm2Y2cxdzJf+jv5i/4P+71merFms4wFYQHBAaUBnoGZgQmBl4P0g06DMoLqg/mDX4BnBx0MIIWEhK0JusA3ZXHYtuz/UPXRWaHuYSlhcWGXYw3DbcHF4SwQaERqxKuJupEWkMLIpCkSxo1ZF3Yu2ip4SfTiGGBMdUxXzJHZM7MzYM3G0uElxO+PexfvHL4u/k2CdIEloS1RLTE2sTXyfFJC0Mql73Ohxs8ZdSNZPFiQ3p5BSElO2pQyMDxy/ZnxPqmtqSer1CVYTpk04N1F/Yu7Eo5PUJnEm7U8jpCWl7Uz7woni1HAG0tnp1en9XBZ3LfcFz4+3mtfL9+av5D/N8M5YmfEs0ztzVWZvlm9WeVafgCWoFLzKDsnemP0+Jypne85gblJuQ55SXlreIaGmMEfYPtlo8rTJXSI7UYmoe4rnlDVT+sVh4m35SP6E/OYCLfgj3yGxlvwieVDoU1hV+GFq4tT90zSmCad1TLedvnj606Kgot9m4DO4M9pmmsycN/PBLOaszbOR2emz2+aYzVkwp2du8Nwd8yjzcub9XuxYvLL47fyk+S0LDBfMXfDol+Bf6kpUS8QlNxZ6Ldy4CF8kWNS52HnxusXfSnml58scy8rLvizhLjn/65hfK34dXJqxtHOZ27INy4nLhcuvr/BdsWOlxsqilY9WRaxqXE1fXbr67ZpJa86Vu5RvXEtZK1nbXRFe0bzOfN3ydV8qsyqvVflXNVQbVC+ufr+et/7yBr8N9RsNN5Zt/LRJsOnm5uDNjTWWNeVbiFsKtzzZmrj1zG+M32q36W8r2/Z1u3B7947YHe217rW1Ow12LqtD6yR1vbtSd13aHbC7ud6+fnODTkPZHrBHsuf53rS91/eF7Wvbz9hff8DiQPVB2sHSRqRxemN/U1ZTd3Nyc9eh0ENtLV4tBw87HN5+xORI1VHto8uOUY4tODbYWtQ6cFx0vO9E5olHbZPa7pwcd/Jqe0x756mwU2dPB50+eYZ5pvWs99kj5zzPHTrPON90we1CY4drx8HfXX8/2OnW2XjR/WLzJY9LLV1ju45d9r184krAldNX2VcvXIu81nU94frNG6k3um/ybj67lXvr1e3C25/vzL1LuFt6T/1e+X2D+zV/2PzR0O3WffRBwIOOh3EP7zziPnrxOP/xl54FT6hPyp8aP6195vTsSG9Q76Xn45/3vBC9+NxX8qfGn9UvrV8e+Mvvr47+cf09r8SvBl8veaP3Zvtbl7dtA9ED99/lvfv8vvSD3ocdHxkfz3xK+vT089QvpC8VX22+tnwL+3Z3MG9wUMQRc2S/AhhsaEYGAK+3A0BNBoAG92eU8fL9n8wQ+Z5VhsB/wvI9oszcAKiH/+8xffDv5gYAe7bC7RfUV0sFIJoKQLwHQJ2dh9vQXk22r5QaEe4DNkV+Tc9LB//G5HvOH/L++Qykqi7g5/O/AOdxfFHM3PBIAAAAimVYSWZNTQAqAAAACAAEARoABQAAAAEAAAA+ARsABQAAAAEAAABGASgAAwAAAAEAAgAAh2kABAAAAAEAAABOAAAAAAAAAJAAAAABAAAAkAAAAAEAA5KGAAcAAAASAAAAeKACAAQAAAABAAACWqADAAQAAAABAAAAbAAAAABBU0NJSQAAAFNjcmVlbnNob3QOXls2AAAACXBIWXMAABYlAAAWJQFJUiTwAAAB1mlUWHRYTUw6Y29tLmFkb2JlLnhtcAAAAAAAPHg6eG1wbWV0YSB4bWxuczp4PSJhZG9iZTpuczptZXRhLyIgeDp4bXB0az0iWE1QIENvcmUgNi4wLjAiPgogICA8cmRmOlJERiB4bWxuczpyZGY9Imh0dHA6Ly93d3cudzMub3JnLzE5OTkvMDIvMjItcmRmLXN5bnRheC1ucyMiPgogICAgICA8cmRmOkRlc2NyaXB0aW9uIHJkZjphYm91dD0iIgogICAgICAgICAgICB4bWxuczpleGlmPSJodHRwOi8vbnMuYWRvYmUuY29tL2V4aWYvMS4wLyI+CiAgICAgICAgIDxleGlmOlBpeGVsWURpbWVuc2lvbj4xMDg8L2V4aWY6UGl4ZWxZRGltZW5zaW9uPgogICAgICAgICA8ZXhpZjpQaXhlbFhEaW1lbnNpb24+NjAyPC9leGlmOlBpeGVsWERpbWVuc2lvbj4KICAgICAgICAgPGV4aWY6VXNlckNvbW1lbnQ+U2NyZWVuc2hvdDwvZXhpZjpVc2VyQ29tbWVudD4KICAgICAgPC9yZGY6RGVzY3JpcHRpb24+CiAgIDwvcmRmOlJERj4KPC94OnhtcG1ldGE+CgUD4/UAAAAcaURPVAAAAAIAAAAAAAAANgAAACgAAAA2AAAANgAAGFgxKh57AAAYJElEQVR4AeydBbQVVRfHB7sTsTtQVFBURFFEUcLuxgAVEQOxuxATxUDFLsQAFQsEFTtRwUBMBLsVO+c7v7PWvt+8eXMn7pu497L3Wm/NfTOn5n/OnNln7//Z08w14qgoAoqAIqAIKAKKgCKgCKSOQDNVtFLHVAtUBBQBRUARUAQUAUXAIqCKlg4ERUARUAQUAUVAEVAEMkJAFa2MgNViFQFFQBFQBBQBRUARUEVLx4AioAgoAoqAIqAIKAIZIaCKVkbAarGKgCKgCCgCioAioAiooqVjQBFQBBQBRUARUAQUgYwQUEUrI2C1WEVAEVAEFAFFQBFQBFTR0jGgCCgCioAioAgoAopARgioopURsFqsIqAIKAKKgCKgCCgCqmjpGFAEFAFFQBFQBBQBRSAjBFTRyghYLVYRUAQUAUVAEVAEFAFVtHQMKAKKgCKgCCgCioAikBECqmhlBKwWqwgoAoqAIqAIKAKKgCpaOgYUAUVAEVAEFAFFQBHICAFVtDICVotVBBQBRUARUAQUAUVAFS0dA4qAIqAIKAKKgCKgCGSEgCpaGQGrxSoCioAioAgoAoqAIqCKlo4BRUARUAQUAUVAEVAEMkJAFa2MgNViFQFFQBFQBBQBRUARUEVLx4AioAgoAoqAIqAIKAIZIaCKVkbAarGKgCKgCCgCioAioAiooqVjQBFQBBQBRWCmRGD69OlOz549nX///dcZP378TIlBrd509+7dnV9//dW57rrrnJYtW1b1baiiVdXdo41TBBQBRUARyAIBlKxOnTo5U6dOdfbee29n2LBhWVSjZWaEwCmnnOIMHDjQadGihVWSW7VqlVFNTS9WFa2mY6glKAKKgCKgCNQQAtOmTXM233xzq2Sts846znPPPefMM888NXQH2lQQOPTQQ52hQ4c6SyyxhPPMM884q6yySlUCo4pWVXaLNkoRUAQUAUUgCwRwN7Vr186ZPHmy07x5c+eVV15xVlhhhSyq0jIzRgCXb5cuXZwnnnjCWW211ZwJEyY4888/f8a1Ji++LhWt0aNHW7/tvffemxyRKs8xbtw4Z/jw4c4111zjzDHHHFXeWm2eIqAIKALVhUCPHj2c22+/3ZltttmcsWPHWstWdbVQW5MEga+//tpp27at89lnnzm77LKLM2LEiCTZc0lbd4rW9ddf7xx++OH2Qdp1111zATHPSn777Tena9euzgILLOCMHDnSmWuuufKsXutSBBQBRaBmEbj22mud3r172/YPHjzYOeqoo2r2XrTh/0cA12/Hjh2d//77zxk0aJDTv3///1+sgl91pWhh6YHUyC6Egw46qArgTdaEIUOGOO+8845z5ZVXhmacMWOG0759e2fppZd2Ro0apdyCULT0oiKgCCgCjjNlyhQHPtaff/7p7LnnntYzoLjUDwJHHHGEfXdiqXz11Ved1q1bV83N1Y2i9cEHH1jzIQRHlI88BTdemzZtnI022ihRtex2+eqrr+yguO2225yXXnrJWWSRRZzvvvsuspxJkyY5G264obP//vtbMmBkBk2gCCgCisBMjMA222zjPPLII858883nvPfee86SSy45E6NRf7eOAWL11Vd3vvjiC2fTTTd1nn766eq5SbdOxJgN3Xnnndc1u0lyvyPzwLp9+vRJXK8h7blG+3aNdcrt1q2ba0aFaxSt2OX069fPnXXWWd233347dh5NqAhEIWDIwq7hsbgPPfRQVNJY1w0Pxj3wwANdY0mIlV4TlUcg7b7ZY489XEMkLl9hnVx59NFH7fzKHDtgwIA6uatib8More5OO+2USiPSmiNuueWWUj8b40UqbUujECeNQoou46mnnrLgGtNhIU1ZfPHFXbPNNHHdTJoiDIqkitbnn3/uGo6Wa1ZqUoweFYEmIWAsrO4GG2zgGuus+8svvzSpLMnMON9kk03crbfe2v3999/ltB4TIpBF35gNQy4LvjFjxiRsTe0k/+eff9y11lrLzq/LLrusjsEUus7Qc9w555zTveeee1IozXXTmiP++usvd5lllrF9bUI+VE1f14WihaKBkmLiaKTS6UkLqVTR8tZTiaJFfrPLwt672dbqLU5/KwKJEUAJMi5wd80113R/+OGHxPnDMvz000/uGmus4W655ZZ2Ug1Lq9caI5Bl38hL84EHHmhccR2cMQR4O0fyjjBE6Tq4o2Jv4Y477rB4Mm7SlLTmiAsuuKDU37feemuaTay4rJpXtH7++WfXhDlwl1pqKdfsOEgMBJ371ltvuWjClUqRitZNN91kB9U555xTafM1nyJgEcD9Pcsss7gmrlAmiEycONGugg855JBMyq/nQrPuG1yIWCgMb7TuYFx77bXtHGm4We6PP/5Yd/eX5w29//771gK6/fbbZ1JtGnMEi0T6GsW6Q4cOmbQzaaE1r2jdf//9FtBevXoluncTBsJdf/31rZK26KKLupiUMaMffPDBiVc9RSpan376qb1/Q/5LdP+aWBHwIgBPh4nJhEbxnk79t/IKk0OaR98YArE799xzu2Y3XvIGVnGO559/3o5rxnbfvn2ruKW10bQ8uNBpzBFHHnlkqd8xpBQtNa9oYcnhITrrrLNiYQnvxISAsHkg6H7zzTc236WXXlrqGBPGP1ZZkqhIRQsr3uyzz25J9SbGljRJj4pAIgTMbl27scIE/0uUL2li5RUmRcx18+obE1PKbdasmfvyyy8nb2RGOUzkb/fxxx93jznmGHe33XazXD/zjbvYtZld2aV5/Y033oidTxM2RiAvLnQac8RHH31krfPoBihdRUvNK1qQ0AETP3wc2W+//Wx6eF1+V6MJ4W+v7bPPPnGKKqUpUtGiEUL+MyEuSm3SH4pAXARwFfIMde7cOW6WJqVTXmF8+PLsmzfffNOOg2233TZ+AzNMiTXKbNe3bWJ8yp8JRB2rVlxIWOnIl3TxHKuCmSxRnlzoNOaI9dZbz/b9Qgst5BZthKh5RQtfMQ/Sgw8+GDns2a5OWkIi+LkIKF2LLbaYve4n+X3//fcuO37K/ZGPlVO565yP2sFVKRmem2aXGPf1wgsvRGKgCRQBPwInn3yyHT8mHpz/UuT/PDcmJpGL6ymuKK8wLlKum3ffmG/+uebjyu4ff/wRv5EBKVEQX3vttYAr8U7BBWJHNfOa/++qq66KVYgJ/FzKe9xxx8XKU4+J4KWZQNjus88+a/mX8JrLCTs0UXD9u4Pz5kKnMUecdNJJpf6/+eaby91yLudrXtEyQTstmHHM3WxZ56Fl55Nf8OPKA81DLnLfffeVzsv1So4LLrhg6OTVFEVLVhoPP/ywNFuPikBsBEy0bDvGP/nkk9h54AbigmeRQew3NqRgCWa7N7F1wspSXmFsmN28+8Z8UcOOBdx1lQgv6B122MGWUekGJerFauWfZ1EA4aJ6w+KEtVEW4ZRjPtESlrRuroE/7wE2nGDFC1JWid3Iu/DUU09tsLv4yy+/dDfbbDOLO4qOV/LmQqcxR4wfP740hggvU6TUvKK1xRZbWDBNFNhQHAmWyK4aHrpLLrmkUVpZ/ZjP2jS4xq5E3JKsosr9EYcGha/cdc5DtA+TpihacDi4L7VohSGs14IQ8HL84MPEEYI/omDxx2/KwKLVsmXL0sRmPtpbtihvnUWb9Ms2sgoueHHKq2+E85qEB+WFihARXgWpkjkJjg7KAIrVCSec4JovZrjMw0mF8UlbFl544UY0kaRliaWHcX322We74IPn47HHHquKnYxghnJF0G4v/t7fzZs3d803chtcX2655VzenYRGIvC2pMf65RUZF3lxob1jv9I5gne+4MF4qrQcLw6V/q55RWv33Xe3gwONO0zMt49Kg+jFF19slFRWUEn5WRRUNEdLgvGZr5c3ui89oQiEIcAqlskV60McmTx5sl2wMHH5rQQSX4fyvFbhoHKVVxiESsNzRfQNu7Hpv3333bdhY2L+d/7555fmWcpBUUoqEgdp3LhxSbOW0uPOpn7+unTpUjqf9AcKFgvlFVdcsVSelCtHFtrHH398aWNV0jqakh5KymmnnWaVUmmPHKGU0B88s+IKRoHh2SSCulexkjwcUU784Y6K4EKnMUcQJFnuDZdoUVLzihbR4AGSCSJM0PgFcP/Oqr///ttF2+e6n58VVqZcK1rRIgIurhseIhVFIAkC8GgY9xBHo4SXjrjqe/bs2Sh5Oatwo4TmhPIKg1BpeK6IvsHtxHjo2rVrw8bE/O+AAw4ozbOUA5k9qTDGsLQ0ZT6Dk0P9/FVqnUPZkAW4lEW8MRRA+L7sZmPBIddWXXXVUJd5Uhyi0n/88ceuxAiTNnDE3cwOwSjBCo0r1puX30GKqbhhs+RC+9ubxhyB90ru77LLLvNXkdv/Na9oDR8+3AIZJ/4PEa8B/cknnywBjJJFmAfpjKiVeCmj50caihYRbGkDZu4kAlGfIJMrr7xykmyaVhGwCIwePdqOO1Z+UeL9XpzftUBeeSnFsQrnxSs0H2i3FmdW9rUmRfSN7HLkJVeJiCIu8ynHKVOmxC4Kbg4hJpq6JR83mrRh1KhRsev3JhS+mpQDudovLMzlOkd2rov1yJ82zf9xybZo0aJB3dQP7yqum5n2YDUV95rcx8CBAxs1Vfo1Ky50owrNiTTmCFy7cl+VWmmD2pb0XM0rWsTB4sHEfRYlKDPsOITT9Prrr1uFSzhedIafnxVVnlyvVNEiHAOrVgISbrfddnZAoDTBCcO9OWnSpEj//8iRI20+jbYtvaHHJAjAz2Ds8xxECfwM0rIY8E/mWB+EExPHKpwXr1A2uey1115Rt1d114voG4mVVKlFy88BYrwkUXLZ+UqeprgN6UihU1AW3oykgsLJe4X8/BFpvBzHR+IyStok95u0XaRnTEvkc6mTI7EgKxGUM285Qbw6eU9mxYUOancac8S0adNK9waHtCipeUUL4Nq2bWsfCgk+GgYmq0SJCM+319j2y6TCQIuzEg8qu1JFa6uttrK7QpiccF1SDqsUXmSsMjBL33XXXUFVls6J77xI/3OpMfqj5hCAv8HYx90QJbIY6NatW6OkotBQVhyrsLwIs+YVSrtqMeJ5EX0zYsQIOx74QkZSoS/pf2IgrbvuuvY3/8dxS0td7FhEiYDIXKkQzoAFK3Uzj1YiEm+RMviDC1xOZCOTpIXKkZXgwcB7IXXJceedd664SjYbSDnwzfDy+KUILnQacwQLQtl5ieJc1CeY6kLRuuGGG+xAgUSZVFiJiwk2zko8qPxKFa2gspKcw0QNiblITT1JezVt9SGAa41JFuJplPTu3dumPeywwxollS8rxLUK58UrrGVFq4i+EYvSgAEDGvVx1Alx05D33HPPLb28GV9xginDiULJaup39KCGiOLAYroSIZ6YlMHxxBNPLFsMi1xvWn5Dxs9CJHSGtz4wCwunEtUOArtKed27dw9MXgQXOq05QihD3CNjtAjJXdFi8iBGC6uAMWPGuITK97sh2MqL6ZittHBB/MHT/ECRv3Xr1tZ1US7GylTzsdQPP/zQn9Vua5VBFnS9UYaAE0UpWldccYV9QIok+QXAoaciEMCczQ49VpLlVu4EuYWYzO4g0vIclEuLSwOXD88UYUTefffdRs9UWJNQ1FntRVmEiZHFs9KpU6cGxcHbIJYW1+JYhfPkFdayogXIeffN0UcfbfuRsZRUBg8ebPMydzMGZV7liOIVJfJNxyFDhkQlDb0u45R6K3GBTp8+vUHbKWfQoEFl60SJ9N4rv1n8py1eBdJbX1C4oiR1M69IeRdeeGFg1ry50GnOEV7ltKh3ZW6KFiY7zLHsjpNOlSMfdBZrEoHSCJkv1ziyDRWTdpgIUTdooPDgY0rm49FepQ2LULt27WxdTfnsBC6Vq6++Oqx5qV/j5QoumOXZDaZS/QjQT3yvzTu2ie2GpUgWCHD2dtxxxwb8EEmPMnPGGWeU+pvds8cee2zg1m7M5biV4xBzZbUa9YzNmDHDut35tiZb3lkkYckS0zztlOc4rDfy5BUWqWix9R4lGQ5Mjx49Qv/69+9fGgNe7PLuG3axMVdWYiHBfQUHlnGCtGnTpjTWsSpEiUTBj+N6Ditr6NChpXorcYEOGzaslF+evbDI4uIylbQc+VJI2tK+fftG7eId0NT5nzlipZVWsoYKIsgHSd5c6DTnCOZI6Zszzzwz6PYyP5eLokUMK/Erwz+CF3X55ZeXuFECAoQ7VtY86LgnSCPXmNwhh4dJnz59rCLnJ+zxcqIc3BpYv/gbb6LGbrzxxvY8O2wwn9aK4O6E3Av/QD+UWiu95rp9+/a14w3lWH7L+GZHDNYrCaoLx4UYRKxWSS/pOPL88F06iTODRZWP7mIJkJ1/kh5CaZRIkMk4O3dRCAntgMsaPgdbwb3PaZyXZJ68wqIUrfPOO8/laxDSD3GOELD9kmffsN2fdgZt7/e3y/8/cxI8Uy/Xj91r3vtmEREmRCvHZddUgYwu9RJoM6kQl0ryy/HOO+8sWwzWZ0knRxbwaUqQe5K6+BB4XpInFzrNOeLiiy8u9U+/fv3ygqtBPZkrWqyMUK4YFJBovWQ0NOmgyUgeDmKWyMDlGLTt1Hs3POxsC8Zy5Z3wcVdCPIdczkdGeZnxQHMOk2hTVwTeNuTxm4mAe4HYXw/y7bffunzqiJdKpe5bcMCE7+33asKG+2K1j3LMlmpvXDfvGOc6bgfGsgjb471p+C3PDSt2sYaRnnzLL798g/S4QsIEbgwLIXYNRn2TM6icJPGzeObz5BXmrWhhMWcR5O0vFGHv//yG6Ct/KNWEmAlyDefZN0JFwAqXVFjwcV9eZX2qoWt4d+5htSsnfEuPOS0oPlu5POXOEzxU8Oaekgr3IPnlePfdd5ctBjeXpJMjYR7SFO89SR0c89wElRcXOu05Am+TYEactyIkc0ULPgc32bFjx0A3BiZLAYEjqyIeOomK7L3GKjGOsOJnZ2GQMJkF7aoISluN53CR4kIaO3ZsNTYvUZsmTJhgdyd5J2P6ezPzva1KJhB2xhQZKyXs5mXyljAc3p0+Msax2tK/fgmayMlDmV6FTPJ5XTaki8MXEV7LRRddJMU0OPLMEHIkSBno3LmzfYahBkSJvMzz4krkqWjhXvG6d1goUj8CfUF4bIz3iRMnRkFVup5H36AgYvFHCfbSK0qNiPgh/eqPWdWhQ4fS/A65udzcKzHDcNs1Vbzxr6ICWQfV5c0vz2aYWx1XqaSTIwFX0xQUNylbjk0N6pq0fXlxoWUspTVHSIxKcIOWUYRkqmhJZGNuMCjQGZYm/0tWSJNYOVjdy6BitRPlOvQCSOC7ehQmwUq++1VtWPDiCYoFI/2N0oGlJInA9atGRQtlSGJMsQEE8Zqz5Z7L8ZtQSCWNHMO2m/tjGbGTLI7gumEHLgsdv0gEaT8HEvI9zzDu/qBn3FtOEbzCPBUtbzylIIIyoVqk/7BKJ5Gs+0Z2jUZ9yqxcmwnpwDMr/CxJB5dP7pljucjiuMm5jvuyqQJXTOqsRHHDqib55Rj2rVosypJOjmlatHhupFzvMc7Gk6Zi6c+fNRc6izmCvhPc/Bt5/PeX1f+ZKlqyEiunRbL6EQDk6OUcQWpkwLJrwBvNPSswtNx8EIAPJ64vPlsB/wFiNS4ylALh8zEmcKlgSo4S+dr76aefHpU09+u44/hALi50JhJEYlLJuMcKVU5Y2Uk6jrggsfgGCdwtb1p+s8s3jqCUYFFmYwirVxHaLIT3G2+80Z5mkQT3kcUQi6AwsjAZUDaL4BXmpWhJoE/wZswGifeFiWKSRLLsGzi09COE/UqEscK4QRn3C8+6jB2wKRfvCU5Tq1at/Nkr+l+8KNQXpiCVKzzIogU5u5zwfFOX9y9NixZ0CG/Z8ruc9blcO9M6nxUXOqs5QpRDcPNyCNPCI045mSpaNCDI1SANg8Arg4YjD2uQK0TS67E+EGDnB/3NJxaClCjO9erVqzQ2cANH8YwkPcp9NQo8QFFeOPp31gZ93kPuw7tCB7dybnHSsw3d+0xhZUhiAeWFjovH/wkUFj1YDFHy4DmiKDNp4b6EixMlafIKsXosb3hokPGj/rxW8ai0XKdfkr7A6Fv55hzWPb5BFyTwraRvGPtJJYu+gUOLu5CNSGFzdVhbhagt3gh/Wi9njfEIedwrjE/GFWMpDSHUj+AsFuQk5fo3qlBWWOBo2i/1yZEFZFoiXwiQsuWYRkworNfsNEzCU+YdnQUXOs05wos9oXEEMz4OXoT8DwAA///BmpAlAAASZElEQVTtnQfMFEUUxx9YiAVsKAjqp9grKtggEdQExYYVEdCIisYaGyo27CKxRbGhIIq9oWAJKkGNsdEUbNgrKhZEsYPj+08ym7273fvu7ru53b37T/Jl79udnfKb2d03b968EZNg6NatmxGR4O+QQw5JsDTMulYE1l57bdOhQwezYMGColnefvvtZvnll7f9Y8011zRTp06NjD9+/HgbZ9111zV///13ZJw0nXzrrbeCPu/6//PPPx9ZxP/++8+sscYaOfHPOOOMyLg4ueuuu+bE7d27d2zcuAvz5s0znTt3NpMnTy6IsnTpUvPnn38WnC92YsqUKWb11Vc3zz33XLFoJV/78ccfzfbbb2+ampqa/Vt55ZUtjxVXXLHZuEhvww03NLfcckvJZUFE9EvXjnvssUfsvR999FEQ76ijjoqNV+xCtdumR48epn///uaPP/4olm3Ra+eee66t1/vvvx8ZD+3u+OB45ZVX5sR76qmn7PXHHnss53yl/2yxxRZBfuh75YYLLrgguN+V+7777otNBv3RxXPHHXfcMTZ+uRemT59ekD7y+fTTT8tNqiA++ivSeuihhwquNXdi2LBhpnv37pHR8B7+999/I69Fnaz2OyKcx+uvvx7w23TTTcOXavZbapZTXkaLFi0yyyyzTAAAjX3zzTfnxeK/9Ubgp59+sm1eTFgI1/m1114znTp1sve0atXKHHjggWbSpElm7ty55oknnjAHH3xw0IfK/UCG86nl7xtuuCEoM/o9hMnff/89sghz5szJiYv4qHdUmD9/vmndunVOfORVSfj5559b9PEN5wnBDM97EuGdd96xPAYMGOAt+5EjRwbMi32Q77333iDeRRddVHF5qtk23333XcXlcDdusskmZsstt3T/FhwhnK+//vpB3SHQ4pwLZ555pr32/fffu1MtOkLIwXOCv4kTJ5ad1oQJE4L7XTpjxoyJTeerr74qiH/EEUfExi/3gntnurK4Y0t5vfDCC0G58T6tJHz99deV3FZwj893xLRp04J6brPNNgV51+JEYoKWG8W4ToPju+++G1nnH374wRTrVJ988omBRIwH5MYbbzT4ODGkkwAEJ7T1gw8+WHIBv/32W9OzZ8/gYQn3Gff7pJNOynl5l5x4AhH79euXUxdooeIC+rOrI44QNvHijQrXXXddTlwIXWCH8Ndff5kvvvjCLFmyJOrWuj1XC0HLCftom19//TWW5cCBA4P2eeWVV2LjZenCrFmzbJ0uvvjiosUeNWpUUHf043vuuSeID+1kNTUNTkuDfPBNKDd8+eWXOWVFOni24sJ7771XEP/OO++Mi17R+Xbt2hXkMWPGjIrSwk3QlLsZpV122aXidLJw4zPPPBOw69WrVyJF9ipoQR19ySWX2GmI9dZbz7z66qtBJaF2RAd2f5geQePnB0jMK620kll22WXNb7/9ln/Z/h9WFSM9TDkxpJPAG2+8Ydv8888/L6uA//zzj4HmAFOOrs/guNFGG5lrrrmmrLSSjIyR/KqrrppTB0xVxIWDDjooJ+7WW28dF9V07do1J26fPn2CuIceeqi9duuttwbnGuFHLQQtCAnoi126dIlFCgEM7zHXZ6PedbE3p/iC00aBc7GAwcEKK6wQ9E9otSD8L1y40Gphhw4dWuz2sq6FBzK33XZbWfe6yBtssEFQVrQZvldx4cUXX8yJi/gff/xxXPSKzmOqGemG/66++uqK0sJNo0ePtmlhcPDyyy9XnE4WbsSUtOOGGZEkgldB65xzzgkqiIrutttuQR3zPwr77rtvcC384+STT7ZpbLbZZuHTBb8xQnQwP/jgg4LrPJEOAvjAYBRcacC8P0aQzz77rMHIM2shyt4iznYJrPLts/A8RIXZs2cH/d89B05rCE2Wm6bHR6GRQi0ELWgEwHyHHXaIRYsBJ+LU04cNgx/YTm611Vax9Q5fOOGEE3L66LXXXmuefPJJey6s4QrfU8nvwYMHB/kgj0pCvmCzzz77xCYDmzP3zOG4zjrrxMaFPdcvv/wSez3uAqb2wnngN2xS40wO4tLBeQxY0Q+RxvDhw4tFrYtr4Sn7Y445JpE6eRW0tttuu5zO4Qxz33777ZzzaPDzzjuvAAC0H23atLFxm3sQMYeOdDp27FiQDk+QQFoIYBSKfur+itlnRb1cH3300ciquBGqSxdaM2e0Dns4nMfzWC+alEgIESdrIWgde+yxzb57nFH+aaedFlHKbJyCBioc7r77blvvUjXKsGVy73P0RyyQcALNZ599Fk66Rb/DAt2ll15aUVr4RrnBCcq63HLLGZiwRIX871ycXSSeQ6SDdOPiRKXvzp144onBe8M953379i15AdDixYvNKaecEqQBgbQRTAmgxXe8zjrrLIezpkevgpYb6aGSsBeBHRUe1vB5BwBTJOGAuG5euhRDVmf/cNhhh4WT4W8SSBWB/fbbL3jo0ffDWt78gmJxiHs+cMQoFCPiqHD//ffnxEU+CNAY4NnDvTB+bbRQC0HL2R2ijaKmYSBE4BqMtFuyui/JthsxYoTByk1oQNAHseINi1Tatm1rYJxfagh/6F3fhmammiE8k3L66adXnLQboLhyQquVv5LuqquuynnuYG+WHwcFwArrsOCGadRyNVswO8g3JUDZmpqaDKZI41ZcQ0DE4gsItogPMxwoNhpl0BVeRZq/4rXizlHmjV4FrbAhL9Spl112mV2dgsbGHHh4KToaH53owgsvNDBYc50bo5P8kVRUHbEcHfdkZeVZVB14rv4JwMbK9W0cixnN5r/od95551hAeJliGselDbshqMnxXEHIajTbLAeqFoIW8nICBGwG4b4DAVO20FzgA4eRNKbashjwgV9ttdWCvuX6GI7laghgq9W+ffuctA4//PCqYoGNriujG3BUkgEEESyycWnhuPnmm5vrr7/e3HXXXQbmLuFrO+20U6zQCeHUTde5e+JcuhQrK/oQhIWwvZtLb6211rIDt6OPPtralMEuE6vsnBYRAy4oJD788MNiWdTdtSOPPDJop6Teg14FLbQYJP5VVlklqCg6xe67725fQhCgLr/88gIDZ8SBgXupvj3C/mlgv5Mf0LEqmcvOT4f/k0BLCdx0003Bs7DtttvGLvBAPliF60bBeIminxcLsH0LL23HcwThCx+FRg21ErQwBRP+AIbfeWjnLIcov2/oWxjcxq2ALVZfDC5wv/urlv8sl2fYXrc52153T7EjVq1B8+zKm3+EcI0Bvpuqj0sL/QNT+htvvLEdAD3++ONxUZs9D43i2WefbeBaI788+f/DPAFG4JW6cGi2MCmPEG67hx9+OJHStkKu2jBeg3ZAUWFHVKoX7RiiquKC/HREbuPoC0vU54qoOrQgTtwJfXBFV62IfoxE3UDYaKq+FZ2fF51SEV2tKEj/pZdeEtWixSXD8yTgnQAeN/1wCfq52naIapyK5qmrM0U1I6IClOgotmhcd1GnqgR/qoUQHbCIjmjdpYY7qrAqaqwtan4gDzzwgPf6q8ZBVLizf/pRFdWAiH5YvefrMwO17RHVxAr6oguqHRHVyIgOmt2pko94BtAe6pZHVGMkQ4YMKfneUiLqlJzt+4irQobg+4PytjSoUGmfKzxbOk1nv1H4Vulsjai2qqzkdQAkauMme++9d1n3RUVW5YKoTZn99qlfNNEVrrZs6HsqaIo64RUdsEXd2hDn8PzpKlBbV3Wqa5nUuuI1EbR8V0qN+kQdBYqqSkUlVlHfQaJe5kUNUEVVhXLqqafK008/bR/ocePG+S4O0ycBEkgJAXyE1Jmm6PSUHXSlpFiZKwaEFbUDErVBEwxidfWr7LXXXqmtB4Sfb775xpZPtT+ipiqpKavatImuJpa0lSs1gKpYEAxoIQdAMNYpfKvsKVcorkpxoNHKeoD9l8KwvkEw3YL/sUID6vyw36JKfapknQ/LTwKNSgB+mmBXg1WZDI1DYM899wym1OLcpyRFA1On8KmGbxODXwJhtzeqPfSbWZHUM6/RgvpZ58it0KmrTQTTiOeff77oapNAENW9jgSjCIzAqqFCDhLmDxIgARIggdQRUEeqot7cbbl0UZboYoVUlBGaQZgMqN2QnW1JRaHquBB33HGHHHfccbaGuhhPdAViIrXNvKA1duxYUT82ATxduWhhojMzkAAJkAAJNB4B2OYOGjTIVhzfBDW4TwUE9aMmql219si6k0AqylTPhTj++ONFfWzaKurm7xXZFFaDT+YFLd28U9TzqzXW1G1+rME7jDdhPKzOHSMN76sBjmmQAAmQAAmkkwAM4nW7LsHiBCxKwEKspA3CdQrTzqpcccUVov7I0gmuzkqlfs1Epw9t26NPwF4riZB5QQvClXocFl1eK+pzSxYtWmTVsoCrPkOskTzA4rx65RV1upcEZ+ZJAiRAAiRQQwJY0adbddkcdZ9dUUfZNcy9MCtMZcJAXz3pl71KsTA1nmmOADwQqFNdUX9oolv+2dXezd3j63qmBS2s2sDSVQSsLsJyVgTdSV50bzFRB3IC+ywE3dFdoELGcmIGEiABEiCB+iaAFebqtNdWEt8D9Y5e3xVm7XIIhM2KYKMHW72kQqYFLfcghf1nASQM4dUjc+DOAT68IITNmzcvMJxPCjjzJQESIAES8E8AC6AwfYgl/j179hR1ZOo/U+aQGgL777+/TJ482ZZn+vTp0r1798TKlmlBS13ry4QJE6R///6iXuQDiHAEp5uVWqd4MIqEfy34znjkkUeCOPxBAiRAAiRQ3wT69OljHavCMTCcecJ/FUP9E9CdYAROYbHKE3ZaM2fOTLTSmRa0dJNP0e0RRLcyEN1iIAAJuLq5tJVmARvuH+CwFJ6yGUiABEiABBqDQHh5v273Zl3/NEbNG7uWbrcYUNC9LwMXD0lRybSghS0RsLUOthmICjA8xPY7cdej7uE5EiABEiCB+iCA9z/sePGd6Nixo93OCtvyMNQ3ARi/z5kzx64ynD9/vrRt2zbRCmda0EqUHDMnARIgARJIPQH4rXIOS3WDdWtWkvpCs4AVE8Cexr1797b3w48Wto5KOlDQSroFmD8JkAAJkIA3AtibEYuhsIsINseGpoOhfgk4I3i4csICOOx7mXSgoJV0CzB/EiABEiABrwSwWGrAgAE2jylTpgiM5Bnqj0BYmzVixAjr6ikNtaSglYZWYBlIgARIgAS8EdD9fu1uITNmzJBu3brJm2++yX1vvdFOJmG0MVw4zJo1Szp37my3OUqLg3IKWsn0CeZKAiRAAiRQQwLTpk0L9rpzO4nUMHtm5ZmA86uJbODiCe6f0hIoaKWlJVgOEiABEiABrwTgUxF74LZr187aajU1NXnNj4nXhsDcuXPtFkvwn3XAAQfIxIkTa5NxiblQ0CoRFKORAAmQAAlkmwD2vIUDS2zf1qtXL5k6dWrim01nm2jypV+4cKGdMkSbdunSxTonxUbiaQoUtNLUGiwLCZAACZCAVwLQfvTo0UMWL14sw4YNk1GjRnnNj4n7I4ANo7F5OBY4tGnTRrB5OATptAUKWmlrEZaHBEiABEjAKwHsFNKvXz9ZunSpjBkzRoYOHeo1Pybuh8Dw4cNl5MiRdmEDtuMbOHCgn4xamCoFrRYC5O0kQAIkQALZI4AP85AhQwSr1bAnLrZtY8gOAdjaweaudevW1vh98ODBqS08Ba3UNg0LRgIkQAIk4JPApEmTrICFbXlgv8WQHQJYyIDtdcaPHy+DBg1KdcEpaKW6eVg4EiABEiABnwQWLFggS5YskU6dOvnMhmlXmQDaDdqs9u3bVznl6idHQav6TJkiCZAACZAACZAACVgCFLTYEUiABEiABEiABEjAEwEKWp7AMlkSIAESIAESIAESoKDFPkACJEACJEACJEACnghQ0PIElsmSAAmQAAmQAAmQAAUt9gESIAESIAESIAES8ESAgpYnsEyWBEiABEiABEiABChosQ+QAAmQAAmQAAmQgCcCFLQ8gWWyJEACJEACJEACJEBBi32ABEiABEiABEiABDwRoKDlCSyTJQESIAESIAESIAEKWuwDJEACJEACJEACJOCJAAUtT2CZLAmQAAmQAAmQAAlQ0GIfIAESIAESIAESIAFPBChoeQLLZEmABEiABEiABEiAghb7AAmQAAmQAAmQAAl4IkBByxNYJksCJEACJEACJEACFLTYB0iABEiABEiABEjAEwEKWp7AMlkSIAESIAESIAESoKDFPkACJEACJEACJEACnghQ0PIElsmSAAmQAAmQAAmQwP+fDxE+jRWO4QAAAABJRU5ErkJggg==;direction=east;" parent="1" vertex="1">
          <mxGeometry x="270" y="402" width="156.07" height="28" as="geometry" />
        </mxCell>
      </root>
    </mxGraphModel>
  </diagram>
</mxfile>
